<mxfile host="65bd71144e">
    <diagram id="3_Cc_gzWteW3cqaHEk4o" name="Page-1">
        <mxGraphModel dx="750" dy="391" grid="1" gridSize="10" guides="1" tooltips="1" connect="1" arrows="1" fold="1" page="1" pageScale="1" pageWidth="827" pageHeight="1169" math="0" shadow="0">
            <root>
                <mxCell id="0"/>
                <mxCell id="1" parent="0"/>
                <mxCell id="44" style="edgeStyle=orthogonalEdgeStyle;html=1;dashed=1;" edge="1" parent="1" source="2" target="3">
                    <mxGeometry relative="1" as="geometry"/>
                </mxCell>
                <mxCell id="45" style="edgeStyle=orthogonalEdgeStyle;html=1;dashed=1;" edge="1" parent="1" source="2" target="4">
                    <mxGeometry relative="1" as="geometry"/>
                </mxCell>
                <mxCell id="2" value="Application" style="shape=module;align=left;spacingLeft=20;align=center;verticalAlign=middle;fontSize=20;" parent="1" vertex="1">
                    <mxGeometry x="330" y="40" width="150" height="80" as="geometry"/>
                </mxCell>
                <mxCell id="33" style="edgeStyle=orthogonalEdgeStyle;html=1;dashed=1;" edge="1" parent="1" source="3" target="11">
                    <mxGeometry relative="1" as="geometry">
                        <Array as="points">
                            <mxPoint x="120" y="305"/>
                        </Array>
                    </mxGeometry>
                </mxCell>
                <mxCell id="34" style="edgeStyle=orthogonalEdgeStyle;html=1;dashed=1;elbow=vertical;" edge="1" parent="1" source="3" target="5">
                    <mxGeometry relative="1" as="geometry">
                        <Array as="points">
                            <mxPoint x="120" y="425"/>
                        </Array>
                    </mxGeometry>
                </mxCell>
                <mxCell id="35" style="edgeStyle=orthogonalEdgeStyle;html=1;dashed=1;" edge="1" parent="1" source="3" target="7">
                    <mxGeometry relative="1" as="geometry">
                        <Array as="points">
                            <mxPoint x="120" y="545"/>
                        </Array>
                    </mxGeometry>
                </mxCell>
                <mxCell id="36" style="edgeStyle=orthogonalEdgeStyle;html=1;dashed=1;" edge="1" parent="1" source="3" target="8">
                    <mxGeometry relative="1" as="geometry">
                        <Array as="points">
                            <mxPoint x="120" y="665"/>
                        </Array>
                    </mxGeometry>
                </mxCell>
                <mxCell id="37" style="edgeStyle=orthogonalEdgeStyle;html=1;dashed=1;" edge="1" parent="1" source="3" target="9">
                    <mxGeometry relative="1" as="geometry">
                        <Array as="points">
                            <mxPoint x="120" y="785"/>
                        </Array>
                    </mxGeometry>
                </mxCell>
                <mxCell id="38" style="edgeStyle=orthogonalEdgeStyle;html=1;dashed=1;" edge="1" parent="1" source="3" target="10">
                    <mxGeometry relative="1" as="geometry">
                        <Array as="points">
                            <mxPoint x="120" y="905"/>
                        </Array>
                    </mxGeometry>
                </mxCell>
                <mxCell id="39" value="IPC" style="edgeStyle=orthogonalEdgeStyle;html=1;dashed=1;fontSize=20;" edge="1" parent="1" source="3" target="4">
                    <mxGeometry relative="1" as="geometry">
                        <Array as="points">
                            <mxPoint x="410" y="180"/>
                            <mxPoint x="410" y="180"/>
                        </Array>
                    </mxGeometry>
                </mxCell>
                <mxCell id="3" value="Renderer&#10;(Vue)" style="shape=module;align=left;spacingLeft=20;align=center;verticalAlign=middle;fontSize=20;" parent="1" vertex="1">
                    <mxGeometry x="70" y="160" width="170" height="80" as="geometry"/>
                </mxCell>
                <mxCell id="40" value="IPC" style="edgeStyle=orthogonalEdgeStyle;html=1;dashed=1;fontSize=20;" edge="1" parent="1" source="4" target="3">
                    <mxGeometry relative="1" as="geometry">
                        <Array as="points">
                            <mxPoint x="480" y="220"/>
                            <mxPoint x="480" y="220"/>
                        </Array>
                    </mxGeometry>
                </mxCell>
                <mxCell id="43" style="edgeStyle=orthogonalEdgeStyle;html=1;dashed=1;" edge="1" parent="1" source="4" target="41">
                    <mxGeometry relative="1" as="geometry"/>
                </mxCell>
                <mxCell id="4" value="Main&#10;(Electron)" style="shape=module;align=left;spacingLeft=20;align=center;verticalAlign=middle;fontSize=20;" parent="1" vertex="1">
                    <mxGeometry x="580" y="160" width="170" height="80" as="geometry"/>
                </mxCell>
                <mxCell id="19" style="edgeStyle=orthogonalEdgeStyle;html=1;dashed=1;" edge="1" parent="1" source="5" target="12">
                    <mxGeometry relative="1" as="geometry"/>
                </mxCell>
                <mxCell id="20" style="edgeStyle=none;html=1;dashed=1;" edge="1" parent="1" source="5" target="17">
                    <mxGeometry relative="1" as="geometry"/>
                </mxCell>
                <mxCell id="5" value="Generate Private Key" style="shape=module;align=left;spacingLeft=20;align=center;verticalAlign=top;fontSize=18;" parent="1" vertex="1">
                    <mxGeometry x="155" y="400" width="205" height="50" as="geometry"/>
                </mxCell>
                <mxCell id="7" value="Generate Public Key" style="shape=module;align=left;spacingLeft=20;align=center;verticalAlign=top;fontSize=18;" parent="1" vertex="1">
                    <mxGeometry x="155" y="520" width="205" height="50" as="geometry"/>
                </mxCell>
                <mxCell id="28" style="edgeStyle=none;html=1;dashed=1;" edge="1" parent="1" source="8" target="18">
                    <mxGeometry relative="1" as="geometry"/>
                </mxCell>
                <mxCell id="8" value="Generate Digest" style="shape=module;align=left;spacingLeft=20;align=center;verticalAlign=top;fontSize=18;" parent="1" vertex="1">
                    <mxGeometry x="155" y="640" width="205" height="50" as="geometry"/>
                </mxCell>
                <mxCell id="21" style="edgeStyle=none;html=1;dashed=1;" edge="1" parent="1" source="9" target="13">
                    <mxGeometry relative="1" as="geometry"/>
                </mxCell>
                <mxCell id="22" style="edgeStyle=none;html=1;dashed=1;" edge="1" parent="1" source="9" target="14">
                    <mxGeometry relative="1" as="geometry"/>
                </mxCell>
                <mxCell id="27" style="edgeStyle=none;html=1;dashed=1;" edge="1" parent="1" source="9" target="25">
                    <mxGeometry relative="1" as="geometry"/>
                </mxCell>
                <mxCell id="9" value="Sign" style="shape=module;align=left;spacingLeft=20;align=center;verticalAlign=top;fontSize=18;" parent="1" vertex="1">
                    <mxGeometry x="152.5" y="760" width="155" height="50" as="geometry"/>
                </mxCell>
                <mxCell id="23" style="edgeStyle=none;html=1;dashed=1;" edge="1" parent="1" source="10" target="15">
                    <mxGeometry relative="1" as="geometry"/>
                </mxCell>
                <mxCell id="24" style="edgeStyle=none;html=1;dashed=1;" edge="1" parent="1" source="10" target="16">
                    <mxGeometry relative="1" as="geometry"/>
                </mxCell>
                <mxCell id="26" style="edgeStyle=none;html=1;dashed=1;" edge="1" parent="1" source="10" target="25">
                    <mxGeometry relative="1" as="geometry"/>
                </mxCell>
                <mxCell id="10" value="Verify" style="shape=module;align=left;spacingLeft=20;align=center;verticalAlign=top;fontSize=18;" parent="1" vertex="1">
                    <mxGeometry x="155" y="880" width="155" height="50" as="geometry"/>
                </mxCell>
                <mxCell id="11" value="Home" style="shape=module;align=left;spacingLeft=20;align=center;verticalAlign=top;fontSize=18;" parent="1" vertex="1">
                    <mxGeometry x="150" y="280" width="160" height="50" as="geometry"/>
                </mxCell>
                <mxCell id="12" value="Cypher Selector" style="shape=module;align=left;spacingLeft=20;align=center;verticalAlign=top;fontSize=14;" vertex="1" parent="1">
                    <mxGeometry x="590" y="460" width="210" height="50" as="geometry"/>
                </mxCell>
                <mxCell id="29" style="edgeStyle=none;html=1;dashed=1;" edge="1" parent="1" source="13" target="18">
                    <mxGeometry relative="1" as="geometry"/>
                </mxCell>
                <mxCell id="13" value="Sign File" style="shape=module;align=left;spacingLeft=20;align=center;verticalAlign=top;" vertex="1" parent="1">
                    <mxGeometry x="430" y="700" width="100" height="50" as="geometry"/>
                </mxCell>
                <mxCell id="30" style="edgeStyle=none;html=1;dashed=1;" edge="1" parent="1" source="14" target="18">
                    <mxGeometry relative="1" as="geometry"/>
                </mxCell>
                <mxCell id="14" value="Sign Digest" style="shape=module;align=left;spacingLeft=20;align=center;verticalAlign=top;" vertex="1" parent="1">
                    <mxGeometry x="430" y="760" width="100" height="50" as="geometry"/>
                </mxCell>
                <mxCell id="31" style="edgeStyle=none;html=1;dashed=1;" edge="1" parent="1" source="15" target="18">
                    <mxGeometry relative="1" as="geometry"/>
                </mxCell>
                <mxCell id="15" value="Verify File" style="shape=module;align=left;spacingLeft=20;align=center;verticalAlign=top;" vertex="1" parent="1">
                    <mxGeometry x="430" y="880" width="100" height="50" as="geometry"/>
                </mxCell>
                <mxCell id="32" style="html=1;dashed=1;edgeStyle=orthogonalEdgeStyle;" edge="1" parent="1" source="16" target="18">
                    <mxGeometry relative="1" as="geometry"/>
                </mxCell>
                <mxCell id="16" value="Verify Digest" style="shape=module;align=left;spacingLeft=20;align=center;verticalAlign=top;" vertex="1" parent="1">
                    <mxGeometry x="430" y="940" width="100" height="50" as="geometry"/>
                </mxCell>
                <mxCell id="17" value="Modulus Length Selector" style="shape=module;align=left;spacingLeft=20;align=center;verticalAlign=top;fontSize=14;" vertex="1" parent="1">
                    <mxGeometry x="600" y="560" width="200" height="50" as="geometry"/>
                </mxCell>
                <mxCell id="18" value="Hash Selector" style="shape=module;align=left;spacingLeft=20;align=center;verticalAlign=top;fontSize=14;" vertex="1" parent="1">
                    <mxGeometry x="600" y="630" width="200" height="50" as="geometry"/>
                </mxCell>
                <mxCell id="25" value="Digest Switch" style="shape=module;align=left;spacingLeft=20;align=center;verticalAlign=top;fontSize=14;" vertex="1" parent="1">
                    <mxGeometry x="360" y="820" width="130" height="50" as="geometry"/>
                </mxCell>
                <mxCell id="41" value="«Library»&lt;br style=&quot;font-size: 18px;&quot;&gt;&lt;b style=&quot;font-size: 18px;&quot;&gt;Digital Signature&lt;/b&gt;" style="html=1;dropTarget=0;fontSize=18;" vertex="1" parent="1">
                    <mxGeometry x="575" y="280" width="180" height="80" as="geometry"/>
                </mxCell>
                <mxCell id="42" value="" style="shape=module;jettyWidth=8;jettyHeight=4;" vertex="1" parent="41">
                    <mxGeometry x="1" width="20" height="20" relative="1" as="geometry">
                        <mxPoint x="-27" y="7" as="offset"/>
                    </mxGeometry>
                </mxCell>
            </root>
        </mxGraphModel>
    </diagram>
</mxfile>